<?xml version="1.0" standalone="no"?>
<!DOCTYPE svg PUBLIC "-//W3C//DTD SVG 20010904//EN"
 "http://www.w3.org/TR/2001/REC-SVG-20010904/DTD/svg10.dtd">
<svg version="1.0" xmlns="http://www.w3.org/2000/svg"
 width="1509.000000pt" height="1509.000000pt" viewBox="0 0 1509.000000 1509.000000"
 preserveAspectRatio="xMidYMid meet">
<metadata>
Created by potrace 1.11, written by Peter Selinger 2001-2013
</metadata>
<g transform="translate(0.000000,1509.000000) scale(0.100000,-0.100000)"
fill="#000000" stroke="none">
<path d="M2263 15047 l-201 -41 -58 -210 c-31 -116 -59 -216 -61 -221 -2 -6
74 -38 169 -72 l173 -62 190 -5 190 -6 -140 70 c-77 38 -144 71 -149 73 -7 2
85 461 101 505 6 15 27 18 -214 -31z"/>
<path d="M5318 14037 c-64 -23 -119 -45 -123 -48 -3 -4 13 -53 36 -110 74
-186 72 -178 43 -189 -47 -18 -74 -22 -74 -12 0 6 -4 22 -10 36 -9 25 -10 25
-51 11 -48 -17 -55 -15 -64 25 -8 35 -9 35 -65 15 -24 -8 -44 -14 -45 -13 -1
2 -8 18 -15 36 -14 36 -16 36 -93 17 -21 -6 -26 -2 -35 25 l-11 31 -37 -16
c-20 -8 -38 -15 -41 -15 -6 0 6 -37 33 -97 l23 -52 87 29 c48 17 88 29 89 27
9 -12 55 -122 55 -132 0 -10 -66 -45 -85 -45 -3 0 -12 18 -21 39 -17 43 -15
43 -91 9 -30 -13 -41 -23 -37 -33 4 -8 41 -100 84 -203 l78 -187 -25 -9 c-31
-10 -35 -6 -66 71 l-25 61 24 6 c27 7 28 4 -30 130 -32 70 -38 77 -53 65 -11
-10 -17 -10 -20 -3 -2 6 -9 19 -16 28 -11 15 -23 8 -117 -64 -58 -44 -106 -87
-108 -94 -1 -7 17 -60 42 -119 25 -59 42 -107 38 -107 -4 0 -15 -7 -25 -14
-16 -13 -16 -16 5 -67 27 -68 33 -75 53 -59 12 10 15 10 15 -2 0 -8 6 -22 13
-32 13 -17 15 -17 45 -2 42 22 51 20 58 -10 5 -21 11 -24 33 -19 23 5 29 1 39
-21 10 -20 17 -25 36 -20 18 4 25 0 34 -20 7 -14 12 -27 12 -29 0 -2 -31 -16
-70 -31 -38 -15 -70 -32 -70 -38 0 -6 52 -132 114 -281 l114 -270 54 -3 53 -3
32 -77 31 -77 119 3 118 3 101 67 102 67 -15 38 c-9 21 -14 39 -12 41 2 2 52
9 111 15 100 10 113 14 175 52 38 23 73 47 80 53 9 8 -21 89 -128 336 -121
281 -249 592 -249 604 0 2 11 7 25 10 14 4 42 29 64 60 l40 53 -79 193 c-44
106 -81 194 -84 197 -4 5 -86 -18 -86 -24 0 -2 7 -20 15 -40 8 -19 15 -39 15
-43 0 -13 -89 -40 -95 -30 -3 6 -14 33 -24 62 -11 29 -22 60 -25 69 -6 13 11
23 83 49 l90 32 -20 50 c-25 65 -38 88 -47 87 -4 0 -60 -19 -124 -42z m131
-429 c6 -17 10 -32 9 -33 -22 -15 -362 -125 -368 -119 -5 5 -11 21 -15 35 -6
25 -3 26 162 86 92 34 175 62 185 62 9 1 20 -12 27 -31z m150 -77 c17 -41 30
-75 29 -76 -22 -13 -94 -33 -98 -27 -15 17 -60 135 -54 141 6 6 88 40 90 37 1
0 16 -34 33 -75z m-482 -170 l30 -80 -40 -16 c-22 -9 -40 -15 -42 -13 -5 8
-55 135 -57 147 -2 11 44 36 73 40 3 1 19 -35 36 -78z m452 -511 c33 -82 61
-154 61 -160 0 -5 -11 -10 -24 -10 -21 0 -30 16 -85 150 -33 82 -61 152 -61
154 0 4 19 11 41 15 4 0 34 -66 68 -149z"/>
<path d="M3055 13979 c-49 -10 -114 -24 -142 -30 -58 -11 -64 -23 -39 -70 27
-53 138 -401 130 -408 -5 -4 -91 -32 -191 -62 -101 -29 -183 -57 -183 -62 0
-5 8 -6 18 -3 9 3 44 8 77 11 33 4 67 9 76 11 10 3 19 -3 22 -13 4 -10 12 -27
19 -38 7 -11 13 -21 14 -23 0 -1 23 5 50 13 80 24 79 25 76 -59 l-3 -73 -70
-24 c-56 -19 -69 -27 -69 -45 0 -16 11 -25 44 -38 43 -16 48 -16 113 2 l68 19
6 59 c4 32 7 102 8 155 l1 97 40 10 40 10 0 -30 c0 -33 -4 -33 94 -3 l49 15
-6 -72 c-4 -41 -12 -75 -19 -80 -7 -5 -39 -16 -70 -26 -43 -13 -58 -22 -61
-39 -3 -18 4 -25 44 -41 47 -20 47 -20 128 0 44 11 78 24 76 29 -3 4 -2 33 1
63 l7 56 43 0 c40 0 46 4 70 40 15 22 29 40 32 40 3 0 17 -14 32 -31 l26 -31
72 7 73 7 34 51 c19 29 31 55 26 61 -4 6 -35 45 -68 86 -58 73 -61 79 -86 190
-14 63 -33 147 -42 186 l-16 71 -191 -38 c-106 -22 -199 -39 -208 -39 -12 0
-21 16 -30 55 -7 30 -16 55 -19 54 -3 -1 -46 -10 -96 -20z m114 -215 c24 -64
41 -118 38 -120 -2 -3 -18 -9 -35 -13 l-31 -9 -37 111 c-20 62 -39 117 -41
124 -4 10 13 17 53 22 6 0 30 -51 53 -115z"/>
<path d="M2874 13744 c-15 -6 4 -74 20 -74 28 1 36 16 25 48 -10 31 -20 36
-45 26z"/>
<path d="M2726 13614 c-49 -19 -90 -35 -92 -37 -2 -3 46 -150 51 -155 2 -2 49
10 103 27 l100 31 -18 58 c-20 66 -41 112 -49 111 -3 -1 -46 -16 -95 -35z"/>
<path d="M2525 13603 c4 -10 10 -26 12 -35 6 -19 28 -24 37 -9 12 18 -13 61
-35 61 -16 0 -19 -4 -14 -17z"/>
<path d="M4259 13190 l-77 -60 100 -256 c54 -141 156 -385 227 -543 l128 -286
77 -3 78 -3 94 57 c52 31 94 62 94 67 0 10 -239 597 -246 606 -2 2 -36 -10
-76 -27 l-73 -30 -13 31 c-12 28 -11 33 7 47 14 10 19 22 15 38 -7 26 -5 26
-49 5 -19 -9 -36 -15 -38 -12 -2 2 -13 27 -24 56 -24 57 -23 58 37 88 19 10
36 19 38 20 3 3 -37 104 -45 114 -1 2 -9 -1 -17 -8 -11 -9 -19 3 -46 69 -18
44 -37 80 -44 80 -6 0 -20 -7 -31 -15 -17 -14 -20 -13 -30 4 -9 19 -15 16 -86
-39z"/>
<path d="M2265 12714 l-230 -147 -177 -215 c-98 -119 -176 -218 -174 -220 2
-2 106 48 231 111 l227 114 292 -283 c160 -156 294 -284 297 -284 13 0 250
545 242 557 -13 20 -467 511 -473 512 -3 1 -108 -65 -235 -145z"/>
<path d="M3971 12570 c-62 -115 -115 -210 -118 -210 -2 0 -2 37 2 83 l7 83
-90 31 -91 32 -40 -67 c-24 -41 -57 -124 -86 -214 -29 -91 -52 -148 -60 -148
-7 0 -28 6 -46 14 -76 31 -66 36 -184 -104 -60 -71 -117 -149 -126 -172 -9
-24 -27 -67 -38 -97 l-22 -54 33 29 c84 73 161 171 190 242 17 40 33 71 35 69
2 -2 -6 -34 -18 -71 -11 -38 -19 -69 -17 -71 2 -1 59 -23 128 -49 69 -27 131
-52 137 -58 9 -7 16 -3 24 18 22 60 79 226 79 233 0 4 -24 15 -52 24 -83 26
-82 25 -52 98 14 35 27 65 28 66 1 1 12 0 24 -4 17 -4 21 -10 16 -29 -5 -19
-1 -24 20 -30 20 -5 26 -12 24 -27 -3 -18 17 -27 182 -79 102 -32 188 -58 191
-58 4 0 10 12 14 28 3 15 60 127 124 249 l118 221 -41 16 c-23 8 -77 27 -121
42 -44 15 -82 29 -84 31 -2 1 4 18 14 37 l18 34 114 -39 c62 -21 118 -39 124
-39 10 0 6 56 -5 68 -6 5 -225 82 -235 82 -5 0 -59 -94 -120 -210z"/>
<path d="M6433 12664 c-41 -87 -43 -97 -88 -399 -25 -170 -45 -313 -45 -317 0
-4 26 -10 57 -14 32 -4 99 -24 150 -45 51 -22 95 -39 98 -39 3 0 5 11 5 25 0
14 4 25 8 25 14 0 375 -50 405 -56 26 -5 27 -8 21 -42 -12 -76 -12 -75 -64
-69 l-48 6 -6 -41 c-4 -22 -5 -42 -4 -44 2 -1 26 -6 55 -9 l51 -7 7 42 7 42
47 -6 c101 -14 101 -14 101 -54 0 -35 6 -41 94 -109 l95 -72 120 -7 120 -7 5
24 c38 163 46 149 -84 149 l-109 0 -111 72 c-85 56 -110 78 -110 95 0 17 8 24
36 29 19 3 32 10 27 14 -4 4 -136 26 -293 49 -157 23 -355 53 -440 66 -136 20
-158 21 -182 9 -39 -20 -43 -17 -12 9 23 20 28 37 44 142 70 454 90 600 88
613 -2 8 -22 -26 -45 -74z"/>
<path d="M6526 12313 c-3 -25 -4 -48 -1 -51 2 -2 54 -13 116 -23 61 -9 113
-20 116 -22 10 -10 -10 -77 -23 -77 -7 0 -59 7 -114 16 -56 9 -103 14 -104 13
-2 -2 -7 -30 -10 -61 l-7 -57 33 -6 c59 -10 620 -85 638 -85 13 0 20 13 27 51
12 59 20 53 -97 69 -118 16 -120 17 -120 48 0 55 7 57 130 38 62 -10 114 -15
117 -12 3 3 8 25 10 49 6 51 19 45 -146 68 -92 13 -101 9 -101 -43 0 -15 -3
-29 -7 -31 -5 -3 -54 2 -111 11 l-103 15 6 41 c4 23 8 45 9 50 1 9 -173 44
-225 45 -24 1 -27 -3 -33 -46z"/>
<path d="M4060 11874 l-104 -94 -37 -105 c-20 -58 -34 -105 -30 -105 4 0 22
16 41 35 19 20 58 54 87 77 39 31 58 56 74 96 26 62 36 64 14 2 -8 -24 -14
-44 -13 -45 2 -1 57 -21 123 -45 66 -24 132 -50 147 -59 18 -9 31 -12 36 -6
13 14 84 226 78 232 -5 6 -298 113 -306 113 -3 -1 -52 -43 -110 -96z"/>
<path d="M6175 11902 c-3 -26 -8 -61 -11 -78 -4 -26 -1 -31 17 -30 17 1 24 -8
33 -39 10 -35 19 -43 64 -64 50 -23 52 -27 46 -54 -5 -23 0 -35 22 -58 31 -32
44 -25 44 24 0 30 13 33 50 12 15 -9 54 -14 100 -15 41 0 137 -9 213 -21 76
-12 140 -20 142 -17 3 2 8 25 11 50 l6 44 -102 14 -102 13 6 58 7 59 -109 0
-110 0 -21 -77 -21 -78 3 81 4 81 -143 71 -143 71 -6 -47z"/>
<path d="M3355 11690 c-16 -11 -30 -25 -30 -31 0 -7 23 -18 50 -26 28 -8 52
-16 54 -18 1 -2 -5 -27 -14 -56 -17 -50 -17 -53 1 -66 10 -7 24 -13 31 -13 15
0 17 -18 4 -38 -7 -12 -21 -10 -79 6 l-71 20 -10 -31 c-6 -16 -10 -31 -9 -32
2 -2 29 -10 60 -19 32 -9 64 -19 73 -22 11 -4 18 3 26 24 l10 29 57 -17 c54
-17 57 -20 55 -49 -3 -29 -1 -31 68 -51 39 -12 72 -20 74 -18 7 9 25 48 25 55
0 5 -31 17 -70 27 -68 18 -79 27 -61 54 6 11 17 11 45 4 41 -12 38 -15 60 56
10 28 18 52 19 52 1 0 31 -9 67 -20 78 -24 75 -24 61 -6 -10 11 -9 16 5 24 20
11 17 14 -71 42 -38 13 -143 49 -233 81 -90 33 -164 59 -165 59 -1 0 -15 -9
-32 -20z m216 -173 c38 -12 44 -17 41 -38 -4 -37 -13 -39 -72 -22 -69 19 -73
23 -60 57 7 20 15 26 29 21 10 -3 38 -11 62 -18z"/>
<path d="M5958 11591 c-59 -14 -110 -29 -113 -32 -3 -4 8 -55 26 -114 26 -83
30 -108 20 -114 -25 -16 -213 -53 -221 -45 -4 5 -22 56 -39 113 -17 57 -33
106 -35 109 -3 2 -61 -11 -131 -29 -89 -23 -124 -36 -121 -45 3 -7 10 -32 16
-56 6 -24 20 -73 31 -109 l19 -66 121 28 c66 16 124 27 129 24 4 -2 13 -26 19
-51 14 -55 10 -60 -55 -70 -22 -3 -46 -9 -52 -13 -8 -5 3 -57 37 -179 27 -95
50 -174 52 -177 4 -4 140 23 146 29 2 1 -5 27 -16 58 l-19 54 111 27 c61 15
114 24 117 20 4 -4 15 -31 24 -59 l17 -52 55 13 c30 7 57 15 60 18 4 4 -65
300 -81 344 -3 9 -18 8 -62 -2 -32 -7 -58 -13 -58 -12 -28 90 -33 113 -27 118
4 4 53 17 109 29 56 13 107 26 114 31 19 11 -49 239 -70 238 -9 -1 -64 -13
-123 -28z"/>
<path d="M4930 11450 c-148 -105 -194 -143 -192 -157 4 -19 282 -896 286 -900
1 -2 35 7 75 18 40 11 74 19 76 17 6 -7 306 -1005 400 -1330 15 -53 18 -57 43
-53 15 2 74 6 132 9 l105 5 -110 -44 c-60 -24 -116 -44 -123 -44 -7 -1 -46 13
-87 31 l-75 32 0 96 0 96 -150 53 c-83 29 -157 51 -165 47 -8 -3 -92 -6 -187
-6 l-173 -2 -9 39 c-5 21 -9 39 -10 39 0 1 -24 -2 -53 -5 l-52 -7 -6 39 c-4
21 -5 40 -2 43 2 2 34 7 71 11 36 3 66 10 66 15 0 5 -5 29 -11 54 -11 44 -12
44 -48 39 -83 -14 -80 -11 -74 -54 6 -43 5 -44 -93 -57 l-51 -6 -7 42 c-6 41
-8 42 -38 36 -17 -3 -39 -6 -50 -6 -14 0 -18 -5 -15 -17 3 -10 8 -35 12 -56 6
-36 8 -38 36 -33 94 19 86 20 93 -18 4 -19 10 -36 15 -38 4 -2 11 -17 14 -34
l6 -31 -91 -7 c-50 -3 -111 -6 -135 -6 l-43 0 0 -89 c0 -53 -4 -91 -10 -93 -7
-2 -8 -16 -1 -43 l9 -40 1 43 1 42 50 0 50 0 0 54 0 54 208 6 c114 3 260 9
325 12 l117 5 0 -55 0 -56 55 0 55 0 0 -55 0 -55 -55 0 -55 0 0 -50 0 -50 55
0 55 0 0 -49 0 -50 -55 6 -55 6 0 -29 c0 -65 -8 -74 -61 -74 l-49 0 0 50 0 50
-60 0 -60 0 0 95 0 95 -105 0 -104 0 -3 -97 -3 -98 -47 -3 -48 -3 0 -45 0 -44
-65 0 -65 0 6 40 7 40 -47 0 -46 0 0 -140 0 -140 28 -10 c92 -34 67 -33 -131
5 -83 15 -120 19 -123 11 -20 -61 -83 -341 -77 -346 4 -4 94 -21 198 -39 225
-39 225 -39 225 -55 0 -7 -45 -165 -100 -351 -55 -187 -100 -343 -100 -347 0
-4 6 -5 13 -2 7 2 24 45 37 94 13 50 27 87 30 82 4 -4 17 -123 30 -264 22
-249 22 -261 6 -370 -9 -62 -19 -125 -22 -140 l-5 -27 -22 25 -22 25 -43 -32
c-24 -17 -47 -28 -51 -23 -4 5 -53 66 -109 135 l-100 126 -77 -16 c-71 -16
-84 -22 -161 -86 -46 -39 -84 -74 -84 -79 0 -5 24 -6 53 -2 l52 6 -35 -30
c-19 -16 -37 -30 -40 -30 -3 0 -13 12 -23 28 -42 67 -43 68 -75 36 -16 -16
-117 -108 -225 -203 l-196 -174 21 -36 21 -36 -29 32 c-22 24 -39 32 -71 35
-24 2 -43 2 -43 0 0 -2 12 -21 28 -43 19 -27 35 -39 52 -39 14 0 35 -3 48 -6
22 -6 22 -7 -13 -45 -35 -39 -35 -40 -19 -72 l16 -32 -28 32 c-21 22 -41 33
-73 37 l-44 7 35 -43 c44 -54 115 -77 155 -51 19 12 27 13 32 4 4 -6 31 -15
61 -20 l53 -8 145 128 c114 99 149 125 160 117 10 -9 6 -18 -22 -47 l-35 -36
19 -35 c26 -47 25 -59 -7 -92 l-27 -28 27 -55 27 -55 -33 -30 c-17 -16 -36
-30 -40 -30 -5 0 5 -24 22 -53 l31 -54 -34 -32 -34 -33 29 -41 c31 -43 31 -43
-19 -98 l-23 -26 22 -45 22 -45 -25 -37 -25 -37 -103 144 -104 143 -68 -205
c-38 -113 -66 -214 -64 -224 2 -9 60 -103 128 -207 l123 -190 102 6 101 6 45
-31 c25 -17 49 -31 53 -31 3 0 23 15 44 33 43 39 32 38 513 59 l288 12 -6 150
c-3 83 -8 161 -11 173 -5 25 1 27 88 37 l48 6 6 -38 6 -38 47 2 c42 2 47 0 47
-19 0 -12 1 -38 2 -57 l2 -35 85 6 c46 3 88 8 92 12 4 4 8 28 8 52 1 25 5 48
8 51 5 6 31 9 90 13 12 1 17 10 17 31 0 35 18 45 100 56 53 7 51 4 64 83 l6
33 -58 -6 c-31 -4 -78 -10 -103 -13 l-47 -5 -11 50 c-6 27 -18 95 -28 151 -20
115 -11 109 -128 87 -38 -8 -71 -13 -73 -12 -1 2 -7 39 -14 84 -10 75 -13 81
-32 77 -45 -11 -270 -44 -274 -41 -1 2 -10 43 -19 90 l-16 87 -41 -6 c-79 -12
-79 -12 -72 -61 20 -147 16 -136 45 -130 14 3 42 8 63 12 41 7 39 10 58 -90
14 -70 13 -71 -72 -80 l-60 -7 5 -37 c17 -110 29 -233 24 -238 -5 -6 -42 -11
-216 -32 -42 -6 -64 -5 -66 2 -2 6 -9 52 -15 101 -19 162 -20 165 -43 165 -11
0 -49 5 -84 11 l-65 11 28 29 27 28 -36 41 -36 42 40 50 39 50 -34 41 -34 42
44 48 44 49 -30 36 c-16 19 -26 40 -23 46 4 6 15 23 26 38 l20 26 -38 69 c-41
74 -40 74 23 -3 34 -42 43 -61 48 -108 l7 -57 41 6 c23 4 45 10 49 15 4 4 3
46 -3 94 -7 48 -10 90 -7 92 4 5 869 164 888 164 3 0 13 -43 23 -96 l19 -96
36 5 c20 3 68 9 106 13 l71 6 17 -98 c19 -111 80 -427 83 -432 1 -2 57 4 125
13 68 9 151 17 184 18 47 2 60 5 58 17 -1 8 -33 177 -72 375 -38 198 -72 379
-76 402 -6 35 -11 43 -35 48 l-28 6 23 90 c13 50 25 93 28 95 2 2 24 -2 49
-10 l46 -13 15 51 14 51 47 -2 c77 -2 78 -4 56 -68 -14 -41 -16 -57 -7 -60 7
-2 27 -8 46 -14 19 -6 38 -11 42 -11 5 0 16 26 25 58 9 31 17 58 19 59 2 3
108 -27 113 -32 4 -4 -181 -672 -205 -744 l-15 -43 37 -38 c31 -32 46 -39 91
-45 l54 -6 -6 -65 c-6 -61 -6 -64 15 -64 19 0 342 -71 394 -86 13 -4 17 -14
15 -37 l-3 -31 -180 -37 c-99 -21 -193 -40 -210 -42 -16 -2 -64 -12 -107 -21
-62 -15 -77 -22 -82 -39 -3 -12 -26 -119 -51 -237 -25 -118 -51 -228 -57 -243
-6 -15 -9 -30 -6 -32 2 -2 48 9 102 25 l97 28 -3 -36 c-3 -34 -1 -37 25 -40
15 -2 27 -6 27 -9 0 -2 -45 -79 -100 -169 l-100 -164 42 -257 c23 -142 45
-261 50 -264 5 -3 -125 -221 -287 -483 -163 -263 -294 -480 -291 -483 4 -4
737 -82 778 -83 11 0 91 128 254 410 130 226 241 410 244 410 4 0 10 -314 14
-697 l5 -698 47 -560 c26 -308 48 -563 50 -567 3 -4 36 -215 74 -470 39 -255
78 -511 87 -570 l16 -108 201 0 c111 0 312 3 448 7 l247 6 86 140 c47 77 84
142 81 144 -2 3 -182 -2 -398 -11 -216 -9 -423 -16 -459 -16 l-66 0 -18 137
c-10 76 -18 147 -18 158 0 11 -42 311 -93 666 -52 356 -94 653 -93 660 1 13
79 -410 195 -1051 25 -140 47 -256 49 -258 5 -5 846 36 852 41 4 5 -4 57 -22
143 -5 21 -2 22 173 29 l178 7 31 92 c18 50 102 298 188 550 l155 459 -51 256
c-28 141 -53 266 -56 279 -4 18 -1 22 21 22 l26 0 0 129 0 129 -57 -3 c-32 -2
-155 -6 -273 -9 -118 -4 -269 -9 -335 -11 -193 -8 -385 -14 -615 -21 -233 -7
-273 -9 -366 -19 -36 -5 -64 -4 -67 2 -3 5 -8 256 -11 559 -2 302 -1 531 4
509 5 -23 6 41 3 151 -5 171 -4 193 12 218 10 14 15 30 11 34 -7 7 -634 111
-672 112 -16 0 -48 -35 -124 -137 -148 -199 -148 -199 -13 45 l76 137 -36 255
c-19 140 -34 257 -32 259 3 2 75 -4 162 -13 87 -10 169 -18 183 -19 19 -2 29
6 42 33 l18 35 0 -37 0 -37 53 -6 c28 -3 98 -12 155 -18 l103 -12 4 -58 c2
-33 5 -60 7 -62 2 -2 93 0 203 5 110 5 283 11 385 15 102 3 401 15 665 25 264
11 488 20 497 20 14 0 18 -11 20 -57 4 -68 2 -67 127 -26 42 14 84 26 94 28 9
2 21 6 25 9 5 3 22 8 38 11 34 7 44 10 64 18 8 4 27 8 42 11 15 3 31 7 36 10
5 3 22 8 38 11 47 10 48 10 62 19 16 10 109 -82 95 -94 -4 -4 -43 -22 -85 -40
-43 -19 -78 -37 -78 -41 0 -3 11 -32 25 -63 14 -31 25 -58 25 -60 0 -1 -18 -8
-39 -15 -22 -6 -55 -18 -75 -26 l-36 -15 36 -73 c20 -39 37 -73 39 -75 1 -1
42 -7 91 -13 72 -10 93 -16 109 -35 14 -16 52 -31 127 -52 l106 -29 179 67
c98 37 189 72 201 79 49 26 30 2 -23 -30 -30 -18 -55 -38 -54 -44 0 -5 4 -31
8 -58 l8 -47 -59 -21 c-32 -12 -58 -22 -58 -23 0 0 9 -30 20 -66 11 -36 20
-71 20 -78 0 -7 -29 -26 -64 -42 l-64 -28 14 -68 c8 -38 13 -73 11 -79 -3 -5
-29 -19 -58 -29 -30 -10 -58 -22 -63 -27 -4 -4 2 -37 14 -74 12 -36 19 -69 15
-73 -3 -4 -27 -14 -53 -23 -40 -14 -47 -20 -47 -43 1 -14 0 -26 -2 -26 -8 0
-744 865 -792 931 -7 11 -18 19 -23 19 -6 0 -9 -138 -6 -378 l3 -378 150 -173
149 -173 -25 -22 c-13 -11 -41 -35 -62 -52 l-37 -30 123 -23 c67 -13 127 -26
133 -30 13 -7 193 -213 194 -222 0 -3 -20 -15 -45 -27 l-44 -21 55 -123 c31
-68 60 -127 64 -132 5 -5 55 -2 117 7 96 14 121 23 231 77 68 34 125 67 128
74 2 6 -2 31 -11 55 -8 24 -15 48 -15 52 0 5 25 25 55 44 30 20 55 40 55 44 0
5 -9 30 -20 56 l-20 46 46 27 c81 48 77 41 66 111 l-9 63 53 35 c58 39 58 38
28 124 l-12 36 46 22 c84 40 84 40 62 98 l-19 51 53 35 54 36 128 -146 c71
-80 129 -150 128 -156 -3 -34 -178 -573 -188 -579 -6 -4 -30 -10 -53 -14 -48
-7 -42 10 -73 -199 l-22 -140 98 -203 97 -202 31 4 c17 3 180 8 362 11 l332 6
7 -75 7 -75 34 -7 c19 -3 34 -9 34 -13 -1 -3 -16 -24 -35 -46 l-35 -40 0 38 0
38 -72 -7 c-40 -3 -74 -7 -75 -8 0 0 -4 -29 -8 -63 l-7 -63 261 7 261 6 0
-201 0 -202 -411 0 -411 0 6 43 c3 23 10 98 16 167 6 69 13 138 15 154 4 23 2
27 -12 22 -9 -4 -36 -10 -60 -13 l-43 -6 0 82 0 81 -85 0 -85 0 0 -284 0 -283
-37 -7 c-21 -3 -58 -6 -83 -7 -122 -3 -78 -16 87 -26 100 -6 186 -14 191 -17
5 -3 13 -70 16 -148 4 -79 10 -152 12 -163 5 -19 12 -20 163 -16 l158 3 38
-86 c31 -68 43 -86 60 -86 11 1 135 16 275 34 l255 32 213 148 c117 82 211
150 209 153 -3 2 -118 -3 -257 -11 -139 -9 -272 -16 -296 -16 l-45 0 -49 102
c-28 56 -49 102 -48 103 2 2 107 8 233 14 127 6 260 14 297 17 l68 6 -200 397
c-110 219 -200 400 -200 402 0 3 72 72 160 154 l160 149 0 90 c0 50 -3 169 -7
264 l-6 172 -334 0 -333 0 0 -50 0 -50 -95 0 -95 0 0 -50 0 -50 -115 0 -115 0
0 496 0 497 33 -9 c17 -4 51 -8 74 -7 34 0 44 -4 49 -19 7 -23 31 -33 102 -43
45 -6 62 -3 117 21 61 25 81 41 53 41 -7 0 -36 5 -64 12 -47 11 -56 11 -95 -8
-24 -12 -35 -15 -24 -7 11 8 28 21 39 29 18 13 18 16 2 71 -10 32 -15 60 -13
62 2 2 30 -5 61 -16 l58 -19 61 30 61 31 -58 24 c-54 22 -60 22 -88 8 -16 -9
-32 -13 -35 -10 -3 2 9 12 26 20 26 14 29 20 22 39 -5 12 -68 155 -140 317
-123 277 -142 326 -123 318 41 -17 123 -77 127 -93 14 -47 29 -65 54 -65 66 0
71 -6 71 -86 0 -40 4 -75 9 -79 6 -3 40 -8 78 -10 37 -3 93 -7 123 -10 30 -2
90 -6 133 -9 l77 -6 0 76 0 77 65 -5 c64 -6 65 -5 65 19 0 24 2 25 38 19 20
-3 59 -6 85 -6 l49 0 -3 -357 c-1 -197 -2 -392 -1 -433 l2 -75 456 -340 c251
-187 459 -340 463 -339 3 1 87 23 186 49 l180 49 167 230 c92 126 166 232 164
233 -2 2 -87 -16 -190 -41 l-186 -46 -538 388 c-295 214 -550 400 -566 415
-16 15 -44 37 -62 48 -23 14 -35 30 -39 52 -21 124 -35 228 -35 260 l0 37 93
1 92 2 -88 10 -88 10 3 153 3 153 -29 5 c-16 3 -41 6 -57 6 l-29 0 0 76 0 76
28 -6 c15 -3 44 -8 65 -12 l37 -6 0 85 c0 94 2 91 -73 102 l-45 7 -3 -80 c-2
-44 -7 -83 -10 -87 -6 -5 -120 12 -206 31 -22 4 -23 9 -23 98 l0 94 -27 6
c-16 3 -49 8 -75 12 l-48 6 0 -95 0 -94 53 -7 c106 -14 101 -8 94 -96 l-6 -78
102 -12 c151 -17 140 -10 135 -96 -3 -41 -7 -76 -10 -79 -2 -3 -55 3 -116 12
l-112 17 0 77 c0 88 5 83 -92 94 l-58 6 0 -88 c0 -48 -3 -119 -7 -157 l-6 -68
-66 6 c-36 4 -88 9 -115 13 l-49 6 8 411 c4 226 9 414 11 417 2 3 33 0 69 -6
l65 -13 0 89 c0 78 2 89 18 89 9 -1 170 -29 357 -63 l340 -62 3 -92 c3 -100 0
-95 74 -108 46 -9 47 -4 51 145 l2 105 73 29 72 30 0 45 c0 25 -4 53 -10 61
-5 8 -96 44 -202 80 l-193 65 -16 205 c-9 113 -16 206 -15 207 1 1 86 -22 189
-52 104 -30 193 -55 198 -55 7 0 8 29 3 81 -6 77 -6 81 12 76 11 -4 60 -16
109 -28 50 -12 93 -25 96 -28 4 -3 12 -197 18 -430 6 -234 13 -426 15 -428 2
-3 96 -28 208 -57 l203 -53 125 52 c69 28 124 55 123 58 -2 4 -3 28 -3 55 l0
47 -190 63 c-171 57 -190 66 -190 86 0 27 -18 269 -25 349 -5 48 -3 57 10 57
13 0 316 -84 353 -97 8 -4 12 8 12 41 0 44 2 48 34 61 29 12 36 22 46 65 15
61 -6 60 305 16 153 -22 234 -29 243 -23 7 5 11 11 9 13 -2 2 -246 76 -542
164 -297 88 -541 163 -543 165 -3 2 95 300 216 662 121 362 219 660 217 662
-3 2 -193 41 -422 86 -291 57 -420 79 -425 71 -3 -6 -23 -72 -43 -146 -21 -74
-40 -140 -44 -146 -4 -7 -150 18 -443 75 l-438 86 0 192 c0 106 -3 193 -7 193
-5 1 -101 -27 -215 -62 l-207 -62 -223 69 c-123 37 -229 72 -237 76 -9 4 6 10
40 16 l54 9 -50 15 -50 15 53 12 c44 10 65 9 121 -4 62 -14 74 -14 129 1 45
11 72 13 102 6 45 -10 53 -1 15 19 -31 17 -32 38 -2 49 l22 9 -25 6 c-36 8
-343 54 -417 62 -54 6 -63 4 -63 -10 0 -18 34 -56 50 -56 6 0 10 7 10 15 0 18
-9 18 130 0 156 -21 160 -22 160 -45 0 -26 -16 -25 -157 0 -87 16 -120 18
-154 11 -24 -6 -55 -10 -69 -10 -24 1 -24 1 5 14 29 14 29 14 -32 15 l-63 0
-2 163 -3 162 -45 5 -45 5 -3 63 c-2 34 -6 62 -10 62 -4 0 -101 9 -217 20
-115 11 -218 20 -227 20 -15 0 -18 -10 -18 -65 l0 -66 -58 7 -59 6 -6 -122
c-4 -68 -7 -152 -7 -188 0 -54 -2 -63 -16 -58 -9 3 -42 6 -75 6 l-59 0 -2 501
-3 501 -108 -158 -107 -159 0 -247 c0 -171 -3 -248 -11 -248 -15 0 -168 112
-200 147 -34 36 -48 113 -22 114 11 0 13 3 6 6 -8 3 -13 23 -13 50 0 36 -4 46
-20 50 -11 3 -20 13 -20 23 0 10 -10 20 -22 24 -40 10 -50 7 -46 -16 2 -18 11
-24 36 -26 27 -3 32 -7 32 -28 0 -22 -4 -25 -32 -22 -28 2 -34 8 -36 31 -3 21
-9 27 -28 27 -22 0 -24 -4 -24 -46 l0 -45 -37 3 c-32 3 -38 7 -37 26 0 12 1
67 2 122 2 99 2 100 26 100 13 0 26 4 28 9 2 6 41 10 88 11 127 2 120 4 120
-29 0 -17 6 -31 16 -35 23 -9 23 -9 26 32 3 34 6 37 38 42 l35 5 6 115 c4 63
7 156 8 205 l1 90 -277 -3 c-153 -2 -279 -5 -280 -6 -1 -1 -6 -46 -11 -101
l-9 -100 -2 109 -1 110 -69 125 c-38 69 -81 150 -96 179 -14 30 -28 52 -30 50
-2 -2 -7 -82 -11 -178 -3 -96 -8 -177 -10 -179 -2 -2 33 -75 77 -162 43 -87
79 -161 79 -163 0 -3 -15 -6 -32 -8 l-33 -3 -3 -170 c-2 -162 -1 -171 17 -172
65 -5 100 -24 126 -69 15 -25 25 -47 23 -49 -2 -2 -50 3 -107 11 -56 9 -105
13 -108 10 -3 -3 -25 -112 -49 -243 -24 -131 -46 -252 -49 -269 l-5 -31 -86
13 c-47 7 -88 15 -91 17 -2 3 3 33 12 67 9 34 15 64 13 66 -2 1 -39 7 -82 13
-42 5 -80 11 -82 14 -3 3 2 33 10 68 10 45 11 66 3 71 -6 3 -40 9 -77 13 -93
9 -93 9 -82 89 10 77 17 71 -86 90 -40 8 -75 16 -78 19 -6 6 6 81 15 96 6 9
86 0 312 -33 167 -25 319 -48 336 -51 32 -6 33 -6 22 22 -6 15 -12 79 -12 141
l-2 112 -50 2 c-27 0 -61 2 -75 3 -14 1 -143 5 -287 9 l-263 7 0 -30 c0 -33
-1 -34 -67 -31 -43 2 -43 1 -43 -34 0 -36 0 -36 -45 -36 l-45 0 0 125 0 125
124 0 124 0 6 63 c3 34 8 137 12 229 l6 167 -159 -5 c-87 -2 -204 -7 -259 -10
l-102 -6 -5 -36 c-3 -21 -9 -82 -13 -137 -7 -86 -9 -94 -15 -60 -4 22 -8 88
-8 147 -1 103 -3 111 -50 235 -27 70 -67 166 -89 213 l-40 85 -1 -181 -1 -180
66 -190 c36 -104 77 -222 91 -261 l25 -73 81 -1 c45 -1 97 0 115 1 38 2 37 25
17 -250 -8 -113 -15 -214 -15 -224 0 -14 -19 0 -75 54 -42 40 -77 71 -80 69
-2 -3 20 -83 49 -179 l53 -175 32 3 c29 3 31 1 26 -20 -8 -37 -104 -632 -102
-634 1 -2 57 -6 124 -10 100 -6 121 -4 120 7 -1 8 4 56 12 107 l14 94 27 -6
c15 -3 50 -8 79 -12 28 -4 54 -10 57 -15 2 -5 -7 -73 -22 -153 l-27 -145 -46
6 c-25 3 -53 7 -61 7 -13 1 -15 -36 -17 -264 -1 -146 -5 -298 -9 -337 l-6 -73
-429 0 -429 0 0 406 0 406 198 -7 c108 -3 220 -8 249 -11 57 -6 53 -12 69 91
11 75 12 77 54 74 22 -2 42 -1 45 2 2 3 14 73 25 155 11 82 22 164 25 183 l6
34 -41 -6 -41 -5 6 41 c4 23 9 50 12 60 4 14 0 17 -19 13 -24 -6 -270 -46
-301 -49 -16 -2 -28 24 -72 148 l-53 150 -88 -3 c-141 -6 -307 -19 -330 -27
-19 -6 -23 0 -38 53 -9 33 -109 362 -221 733 -113 370 -203 674 -201 676 4 5
735 193 748 193 9 0 31 -98 23 -110 -3 -5 -15 -10 -26 -10 -28 0 -32 -19 -15
-67 l15 -42 -55 -12 c-30 -7 -54 -14 -54 -16 0 -2 8 -31 17 -64 18 -66 14 -64
95 -44 22 6 27 1 42 -40 17 -44 19 -46 50 -39 17 3 32 8 34 9 2 1 -2 24 -9 50
-11 43 -14 46 -38 40 -14 -4 -30 -7 -34 -8 -10 -2 -37 76 -37 105 0 12 11 19
34 24 33 6 40 15 137 192 56 103 106 193 112 200 7 8 29 12 66 10 l56 -3 25
-220 c23 -203 26 -220 44 -217 21 4 21 2 -13 285 l-17 147 153 0 153 0 0 63 0
64 -167 6 c-91 4 -241 7 -333 7 l-167 0 32 -127 c17 -71 29 -129 26 -130 -3
-1 -224 -48 -491 -103 -267 -56 -498 -106 -513 -112 -15 -6 -30 -8 -33 -5 -7
7 -282 952 -288 990 -2 16 -6 30 -8 32 -2 1 -91 -60 -198 -135z m3405 -2290
c4 -6 15 -8 26 -5 15 5 19 1 19 -19 0 -19 6 -27 25 -31 14 -3 36 -7 49 -10 33
-7 56 3 56 25 0 12 10 20 31 24 61 12 59 17 59 -126 l1 -133 47 -33 c43 -31
44 -33 17 -27 -16 3 -38 8 -47 11 -12 4 -22 -3 -30 -20 -6 -14 -14 -26 -18
-26 -4 0 -10 -8 -14 -17 -6 -20 -25 -51 -42 -70 -15 -15 -89 -19 -175 -9 l-66
8 -13 -82 -13 -82 -36 5 c-20 4 -60 9 -90 13 l-53 7 6 56 c4 31 13 81 20 111
8 30 17 72 21 93 6 36 7 37 38 32 131 -23 309 -41 313 -31 2 6 10 54 19 106 8
52 18 107 21 121 l5 27 -120 18 -121 18 0 28 c0 24 4 28 29 28 17 0 33 -5 36
-10z m1235 -90 c80 -6 169 -13 198 -16 l52 -6 0 -59 c0 -54 -2 -59 -22 -59
-50 0 -405 22 -425 26 -21 4 -23 10 -23 63 0 32 3 61 7 64 4 4 20 5 37 2 17
-2 96 -9 176 -15z m-2145 -122 c3 -2 1 -29 -4 -59 -5 -30 -15 -89 -22 -132 -6
-43 -15 -79 -18 -82 -4 -2 -44 1 -90 7 l-83 11 6 56 c4 30 9 65 12 77 5 20 0
22 -68 30 l-73 9 2 49 c1 27 4 58 7 71 l6 22 160 -27 c88 -15 162 -29 165 -32z
m-1055 -189 c0 -13 -58 -363 -65 -396 -5 -20 -12 -23 -50 -23 -51 0 -57 -8
-69 -92 -6 -42 -10 -48 -47 -62 -22 -9 -41 -16 -43 -16 -2 0 0 21 5 48 22 124
24 112 -14 112 l-34 0 23 138 c33 189 36 174 -36 170 -59 -3 -60 -3 -60 23 0
37 12 44 120 63 80 15 237 41 263 45 4 1 7 -4 7 -10z m-1529 -16 c1 -5 2 -29
3 -55 l2 -48 -60 0 c-34 0 -85 -3 -113 -6 l-53 -7 0 56 0 56 83 4 c45 1 94 4
110 5 15 1 28 -1 28 -5z m3664 -75 c-2 -7 -18 -74 -35 -148 -17 -74 -36 -146
-41 -159 -11 -27 -110 -143 -116 -137 -3 2 5 50 16 107 19 94 27 112 97 226
70 115 89 141 79 111z m-461 -248 c16 0 17 -5 11 -47 -13 -95 -14 -96 -54 -90
-92 13 -656 101 -659 102 -2 2 16 98 23 121 2 7 111 -5 332 -37 180 -27 336
-49 347 -49z m127 -166 l65 -6 -16 -97 -15 -96 -98 -3 c-74 -2 -97 0 -97 10 0
7 7 54 15 103 8 50 15 94 15 99 0 4 15 6 33 2 17 -3 62 -8 98 -12z m1858 -70
c2 -2 -14 -4 -36 -4 -36 0 -41 -3 -51 -32 l-11 -33 1 40 c0 22 -3 48 -7 58 -7
16 -3 16 46 -4 30 -11 56 -23 58 -25z m-4212 -84 c32 -131 35 -134 47 -60 l11
65 48 3 c46 3 47 2 47 -25 0 -15 3 -65 7 -110 l6 -83 -57 0 c-50 0 -57 -2 -52
-17 3 -10 8 -30 12 -45 5 -22 14 -29 41 -34 25 -5 38 -3 44 7 5 9 9 -15 9 -63
0 -77 0 -78 -25 -78 -14 0 -25 -3 -25 -7 0 -5 11 -51 25 -103 26 -101 24 -109
-25 -110 -56 -1 -51 -17 9 -29 50 -10 61 -16 61 -32 0 -16 7 -19 50 -19 47 0
50 -2 50 -25 0 -21 -4 -25 -22 -20 -329 77 -374 85 -437 74 -35 -5 -66 -7 -69
-4 -4 3 -52 164 -108 358 -66 231 -98 353 -90 356 39 15 385 99 400 98 16 -2
24 -19 43 -97z m2927 0 c-15 -39 -31 -73 -36 -76 -5 -3 -47 -3 -94 1 l-85 7
53 38 c29 21 56 36 60 34 5 -3 33 13 65 35 31 23 58 39 61 37 2 -3 -8 -37 -24
-76z m-241 44 c4 -1 8 -2 10 -3 1 -2 13 -5 26 -7 43 -8 36 -14 -16 -14 -34 0
-53 5 -56 14 -7 18 2 28 17 18 6 -4 14 -7 19 -8z m1425 -89 c-11 -22 -22 -42
-24 -44 -2 -2 -4 21 -4 51 0 56 0 56 24 45 l24 -12 -20 -40z m250 30 c1 -1 16
-125 32 -276 16 -151 32 -293 35 -316 l6 -43 63 0 c56 0 86 11 86 31 0 4 -28
4 -63 2 l-63 -5 -33 288 c-18 159 -35 297 -37 307 -7 24 43 23 104 -2 26 -11
98 -40 161 -66 114 -47 115 -47 154 -31 23 9 42 15 43 13 1 -1 -4 -31 -13 -67
-8 -36 -43 -189 -77 -341 l-62 -276 255 -93 c141 -51 257 -94 259 -95 1 -1
-11 -34 -28 -73 -44 -103 -220 -561 -220 -572 0 -5 19 12 43 36 l42 46 80
-114 80 -113 130 -10 130 -10 3 -42 c2 -24 1 -43 -2 -43 -3 0 -92 18 -198 41
-218 46 -187 46 -575 -3 l-171 -22 -209 74 c-114 40 -210 74 -212 76 -2 2 7
21 21 41 l25 38 -57 130 c-31 72 -73 165 -93 207 l-36 77 95 268 c53 147 102
281 110 297 8 16 14 33 14 38 0 5 -33 6 -75 2 l-75 -7 -30 68 c-16 37 -30 68
-30 70 0 2 21 5 48 7 l47 3 3 98 3 97 29 0 c27 0 34 10 105 139 l76 140 37 -6
c20 -3 38 -7 40 -8z m-1833 -35 c3 -5 1 -10 -4 -10 -6 0 -11 5 -11 10 0 6 2
10 4 10 3 0 8 -4 11 -10z m3816 -105 c40 -9 74 -17 76 -18 1 -2 -48 -155 -110
-339 l-112 -336 -95 30 c-52 17 -97 32 -99 34 -3 3 181 503 225 612 15 37 18
37 115 17z m-3803 -502 l-3 -78 -85 0 -85 0 -3 78 -3 77 91 0 91 0 -3 -77z
m728 47 l34 0 0 -64 c0 -36 -5 -68 -11 -71 -5 -4 -41 -4 -80 0 l-69 7 0 70 0
71 46 -7 c26 -3 62 -6 80 -6z m-1529 -146 c3 -7 -7 -86 -22 -174 -15 -89 -25
-163 -23 -164 6 -5 323 -87 393 -101 37 -8 76 -17 86 -20 14 -5 18 0 21 22 l3
28 148 0 c82 0 151 -3 153 -7 2 -3 7 -40 11 -82 l6 -76 77 0 c42 0 172 3 288
7 l212 6 0 71 0 72 88 -2 c117 -2 112 -1 112 -25 0 -17 4 -20 23 -15 107 28
137 29 266 6 l127 -23 18 -106 c10 -58 37 -200 59 -316 22 -115 42 -225 45
-242 6 -44 16 -41 31 7 6 21 15 42 20 45 5 3 0 -25 -11 -62 -24 -80 -19 -159
13 -183 16 -13 18 -20 9 -49 -15 -53 -4 -77 40 -90 l38 -11 -14 -53 c-7 -28
-14 -53 -14 -55 0 -2 13 -8 30 -13 l30 -11 -7 -272 -6 -273 41 -23 c23 -13 40
-25 39 -26 -2 -2 -19 -10 -39 -19 l-37 -15 -32 59 -33 60 -34 -15 c-19 -8 -36
-14 -38 -14 -2 0 3 18 11 40 l14 40 -42 0 c-66 0 -72 8 -52 69 9 29 14 55 11
58 -3 3 -27 8 -53 10 l-48 5 -36 -115 c-41 -132 -47 -119 59 -133 29 -4 50
-10 45 -14 -4 -4 -48 -24 -98 -45 -49 -20 -117 -50 -149 -66 -32 -16 -60 -28
-62 -26 -7 6 130 389 140 392 6 1 89 19 185 39 96 20 176 38 179 40 4 5 -35
216 -41 222 -2 2 -111 -19 -242 -47 l-239 -51 -56 17 c-30 10 -60 20 -67 22
-7 3 -13 -8 -15 -29 l-3 -33 -179 -12 c-105 -7 -182 -17 -186 -23 -4 -6 -10
-120 -14 -253 -4 -133 -9 -244 -12 -246 -5 -5 -1409 38 -1454 44 -14 2 -76 4
-137 4 l-113 1 0 815 0 815 39 0 40 0 -16 56 c-19 64 -16 68 54 79 23 3 43 9
43 13 0 4 -9 35 -19 70 -14 46 -16 64 -8 67 14 5 99 24 108 25 4 0 12 -21 19
-47 7 -27 16 -52 20 -56 9 -11 91 13 96 28 3 6 -2 30 -10 52 -16 47 -19 44 50
58 l32 6 -14 53 c-12 45 -12 64 1 137 8 46 15 86 15 89 0 12 82 -3 87 -16z
m-1167 -94 c0 -5 25 -10 55 -10 l55 0 0 -55 0 -56 78 3 77 3 3 53 3 52 50 0
c27 0 49 5 49 10 0 6 45 10 115 10 l115 0 0 -269 0 -268 -237 -81 -238 -81
-207 6 -208 6 -1 166 -1 166 -19 -114 c-11 -63 -21 -116 -23 -119 -3 -2 -11
-2 -19 0 -11 2 -9 22 15 108 16 58 31 112 35 120 3 8 5 18 5 23 -1 4 3 7 8 7
6 0 10 62 10 165 l0 165 140 0 c87 0 140 -4 140 -10z m-1420 -394 l0 -44 -51
-12 c-27 -7 -52 -10 -55 -7 -3 2 -2 28 2 56 l7 51 48 0 49 0 0 -44z m1480
-386 c0 -16 -4 -30 -10 -30 -5 0 -10 14 -10 30 0 17 5 30 10 30 6 0 10 -13 10
-30z m-410 -173 c-34 -78 -66 -146 -70 -150 -4 -4 -12 -1 -19 7 -11 13 0 41
66 166 43 83 80 144 81 135 2 -9 -24 -80 -58 -158z m-79 126 c-8 -15 -10 -15
-11 -2 0 17 10 32 18 25 2 -3 -1 -13 -7 -23z m489 -113 l0 -60 -175 0 -175 0
0 60 0 60 175 0 175 0 0 -60z m3630 -21 c93 -29 170 -55 170 -59 0 -4 -92 -18
-205 -32 -113 -14 -208 -28 -210 -30 -3 -2 -8 -43 -11 -90 l-7 -85 -38 10
c-22 5 -39 13 -39 16 0 4 16 54 35 111 19 57 35 107 35 111 0 3 -15 10 -32 16
l-33 9 50 13 c37 9 56 20 70 42 11 16 26 27 32 24 7 -2 89 -28 183 -56z
m-5212 -537 c8 -35 12 -66 9 -68 -5 -5 -290 -54 -294 -51 -3 3 -21 142 -19
144 6 7 235 41 261 40 28 -2 31 -5 43 -65z m-814 -197 c31 -41 56 -79 56 -85
0 -6 -28 -10 -67 -10 -62 0 -70 2 -100 32 -18 18 -33 36 -33 41 0 13 69 97 79
97 5 0 34 -34 65 -75z m-482 -127 c-8 -8 -9 -4 -5 13 4 13 8 18 11 10 2 -7 -1
-18 -6 -23z m2868 -13 c-7 -20 -14 -35 -16 -33 -2 2 2 21 8 41 6 20 13 35 16
33 2 -3 -1 -21 -8 -41z m-2882 -111 c9 -18 7 -25 -15 -45 l-26 -24 8 40 c7 39
14 59 20 53 1 -2 7 -13 13 -24z m-38 -129 c0 -18 -51 -157 -56 -152 -7 7 40
175 48 171 4 -3 8 -11 8 -19z m6999 -240 c22 -7 21 -8 -19 -31 -23 -13 -44
-24 -46 -24 -4 0 -31 52 -44 86 l-10 25 48 -25 c26 -13 58 -28 71 -31z m-3722
-2657 c-3 -7 -5 -2 -5 12 0 14 2 19 5 13 2 -7 2 -19 0 -25z"/>
<path d="M10055 7148 c-22 -62 -41 -115 -43 -119 -2 -4 50 -24 115 -45 65 -21
120 -40 122 -42 3 -1 -3 -27 -13 -56 l-19 -54 -55 19 c-30 10 -60 19 -67 19
-10 0 -135 -318 -135 -342 0 -10 128 -50 139 -44 5 3 12 17 15 30 3 14 10 36
16 50 l9 24 108 -35 c59 -19 109 -36 111 -37 1 -2 -5 -22 -13 -46 -24 -67 -21
-74 37 -93 29 -9 56 -13 59 -9 4 4 37 80 72 170 l66 163 -25 9 c-14 6 -36 13
-50 16 -13 3 -27 10 -30 15 -4 7 21 105 31 116 1 2 55 -15 120 -37 65 -22 120
-38 122 -36 2 1 21 55 42 119 l39 116 -120 40 c-67 22 -124 39 -128 36 -3 -2
-23 -53 -44 -114 l-38 -109 -106 35 c-59 20 -110 38 -114 42 -4 4 11 58 33
120 22 63 38 115 37 116 -3 2 -245 75 -250 75 -2 0 -21 -50 -43 -112z"/>
<path d="M7480 5781 l0 -121 104 0 103 0 7 53 c3 28 6 80 6 115 l0 62 -57 0
c-32 0 -82 3 -110 6 l-53 7 0 -122z"/>
<path d="M8120 5753 l0 -113 39 0 c21 0 66 -3 100 -6 l61 -7 0 116 0 116 -100
3 -100 3 0 -112z"/>
<path d="M6576 11548 c-3 -7 -9 -34 -14 -59 l-9 -47 80 -7 79 -7 -5 -44 c-2
-25 -7 -47 -10 -50 -2 -3 -30 -1 -61 4 -65 10 -55 24 -81 -117 -11 -61 -12
-87 -4 -97 11 -13 37 -18 155 -29 l60 -6 19 113 c10 62 24 120 31 128 6 8 14
26 16 40 2 21 8 25 38 25 19 0 49 -4 66 -7 31 -7 31 -7 43 49 6 31 9 59 6 61
-3 3 -27 8 -54 12 -54 7 -61 0 -61 -59 0 -23 -2 -24 -60 -18 -111 12 -113 13
-106 63 6 48 7 47 -77 59 -35 5 -48 3 -51 -7z"/>
<path d="M6427 11523 c-3 -5 -8 -33 -11 -64 -6 -46 -4 -58 12 -72 18 -16 19
-15 30 47 16 86 15 96 -7 96 -11 0 -22 -3 -24 -7z"/>
<path d="M9263 11513 c-18 -3 -23 -11 -23 -34 l0 -30 48 7 c77 11 98 28 66 55
-14 11 -18 10 -30 -6 -12 -17 -14 -17 -14 -2 0 17 -5 18 -47 10z"/>
<path d="M9007 11483 c-22 -4 -26 -9 -23 -26 22 -110 28 -149 29 -191 2 -45 0
-50 -23 -57 -14 -5 5 -6 41 -3 l67 6 17 -77 17 -77 36 6 c21 3 70 8 110 12
l74 7 -8 56 c-15 109 -19 102 76 132 47 16 81 28 75 29 -17 0 -329 -40 -346
-46 -14 -4 -18 8 -24 85 -7 89 -7 90 -30 81 -22 -8 -24 -6 -30 31 -4 21 -12
38 -18 38 -7 -1 -24 -4 -40 -6z"/>
<path d="M8443 11297 c-62 -12 -113 -24 -113 -27 0 -3 65 -50 145 -104 l145
-99 102 14 102 14 -127 113 c-69 61 -130 112 -134 111 -4 -1 -59 -11 -120 -22z"/>
<path d="M3184 11264 c-9 -20 -13 -42 -11 -48 3 -6 74 -33 158 -60 85 -27 200
-64 256 -81 l102 -33 25 70 c14 38 26 73 26 78 0 4 -14 13 -31 19 -29 10 -31
9 -44 -23 l-15 -34 -110 36 c-113 38 -119 38 -132 0 -2 -4 -33 2 -71 14 -60
20 -67 25 -65 46 3 20 -4 27 -35 38 l-38 13 -15 -35z"/>
<path d="M4303 11252 c-51 -9 -93 -19 -93 -23 0 -7 87 -59 99 -59 3 1 30 23
60 50 30 28 48 49 40 49 -8 -1 -56 -9 -106 -17z"/>
<path d="M7080 11166 l0 -76 78 0 78 0 -4 35 -4 35 131 0 131 0 0 -40 0 -40
123 0 c68 0 158 -3 200 -6 l77 -7 0 -58 0 -59 60 0 60 0 0 98 c0 53 3 113 6
133 l6 36 -163 6 c-90 4 -302 10 -471 13 l-308 7 0 -77z"/>
<path d="M4124 11104 c3 -9 6 -39 6 -67 l0 -51 50 49 c28 27 50 52 50 55 0 6
-81 30 -101 30 -6 0 -8 -7 -5 -16z"/>
<path d="M4297 10953 c-20 -32 -35 -59 -34 -60 3 -2 149 26 153 30 2 2 -16 22
-40 46 l-43 43 -36 -59z"/>
<path d="M7145 10827 c-4 -25 -4 -50 0 -56 3 -6 38 -11 79 -11 40 0 94 -3 120
-6 l46 -7 0 -43 0 -44 -60 0 c-59 0 -59 0 -65 -32 -3 -18 -6 -64 -8 -103 l-2
-70 -109 4 c-124 4 -123 6 -61 -77 l36 -48 427 3 c235 2 431 3 435 3 5 0 -1
14 -13 30 -16 23 -18 31 -8 34 7 3 20 7 28 9 8 3 -19 6 -61 6 -42 1 -98 4
-124 8 l-48 6 7 102 6 102 -70 7 c-74 8 -75 8 -64 64 l6 31 124 -6 124 -6 0
55 0 56 -122 4 c-78 2 -126 0 -130 -7 -4 -5 -8 -27 -8 -47 l0 -38 -62 0 c-35
0 -87 3 -115 6 l-53 7 0 48 0 49 -64 0 c-34 0 -90 3 -124 6 l-60 7 -7 -46z
m484 -186 c4 -1 -6 -102 -11 -107 -2 -1 -55 1 -118 4 l-114 7 3 50 c1 27 4 52
6 55 2 4 212 -4 234 -9z"/>
<path d="M10171 10417 l-94 -382 -76 0 c-143 0 -433 -17 -424 -25 4 -4 125
-50 268 -103 l260 -96 269 -16 c148 -9 270 -14 273 -12 5 6 123 629 123 652
-1 15 -60 61 -226 175 -124 85 -238 163 -253 172 l-26 17 -94 -382z"/>
<path d="M8766 10697 l35 -74 -22 -37 c-27 -46 -15 -86 26 -86 14 0 25 5 25
10 0 21 20 9 35 -21 14 -27 20 -30 48 -24 59 13 63 25 31 101 l-28 66 22 39
c27 47 27 49 -2 49 -14 0 -28 5 -31 10 -3 6 -25 10 -49 10 -23 0 -46 4 -51 9
-6 5 -25 12 -42 16 l-33 7 36 -75z m157 -198 c-5 -5 -27 35 -50 89 -62 142
-61 151 2 28 31 -60 53 -112 48 -117z"/>
<path d="M4860 10625 c0 -11 21 -159 47 -330 40 -268 49 -312 67 -327 23 -19
15 -24 -14 -8 -13 7 -98 -2 -292 -30 -293 -43 -442 -66 -498 -76 l-35 -7 35
-12 c19 -6 36 -18 38 -27 2 -9 -35 -40 -98 -81 l-100 -67 -99 0 -100 0 26 -75
25 -75 71 0 c99 0 125 10 215 79 71 55 78 64 74 89 -5 34 1 37 81 47 l57 7 0
-30 c0 -39 11 -45 60 -37 33 6 40 11 40 30 0 46 -8 53 -54 48 l-43 -5 -7 47
c-4 26 -6 49 -3 51 4 4 350 54 375 54 6 0 12 -9 12 -20 0 -26 5 -26 91 12 41
17 98 35 127 39 30 4 55 9 57 11 2 2 -16 132 -40 289 -40 266 -45 290 -78 355
-21 40 -36 61 -37 49z"/>
<path d="M5643 10439 c-18 -5 -33 -13 -33 -17 0 -4 17 -59 39 -122 25 -77 43
-114 52 -113 8 0 28 4 44 8 30 6 32 5 46 -42 14 -43 18 -48 45 -48 16 1 41 4
55 8 24 6 27 3 43 -49 13 -43 21 -54 34 -50 23 7 166 46 168 46 1 0 10 -22 20
-50 16 -45 20 -49 43 -43 56 14 63 10 78 -42 8 -27 17 -52 19 -54 5 -5 94 20
94 27 0 7 -102 346 -105 350 -2 2 -62 -13 -134 -32 -72 -20 -133 -36 -135 -36
-2 0 -9 20 -16 45 -7 25 -16 48 -20 50 -4 3 -51 -8 -104 -24 l-97 -29 -8 21
c-4 12 -21 64 -36 115 -30 98 -31 99 -92 81z"/>
<path d="M4720 10294 c-153 -27 -141 -22 -134 -52 15 -67 12 -64 62 -57 26 3
76 11 111 17 l63 10 -6 42 c-4 22 -10 44 -14 47 -4 3 -41 0 -82 -7z"/>
<path d="M4258 10216 c-43 -7 -80 -14 -82 -17 -5 -4 9 -78 16 -84 1 -1 44 4
95 12 50 9 99 13 107 10 10 -4 16 -18 16 -36 0 -24 -5 -30 -27 -35 -35 -7
-155 -26 -166 -26 -9 0 1 -81 12 -92 7 -8 592 70 604 81 4 4 4 28 1 54 -8 54
-5 54 -131 33 -88 -14 -93 -12 -93 34 0 29 -12 31 -107 16 -48 -8 -91 -12 -95
-9 -5 2 -8 20 -8 39 0 32 -2 34 -32 33 -18 -1 -68 -7 -110 -13z"/>
<path d="M2745 9779 c-193 -133 -354 -245 -359 -249 -6 -6 158 -923 168 -937
0 0 174 9 386 22 l385 22 364 137 c201 75 366 138 368 140 10 10 -635 41 -675
33 l-28 -6 -128 522 c-71 287 -129 530 -128 540 0 9 0 17 -1 17 -1 0 -160
-109 -352 -241z"/>
<path d="M6503 9945 c-18 -8 -33 -19 -33 -25 0 -6 16 -60 36 -121 28 -87 39
-109 51 -105 8 3 26 9 40 12 13 4 22 12 20 18 -2 6 -19 62 -37 124 -18 61 -36
112 -39 112 -3 -1 -21 -7 -38 -15z"/>
<path d="M4986 9869 l-118 -60 4 -69 c4 -76 -3 -74 -22 8 l-12 52 -98 0 -97 0
5 -49 c5 -55 7 -54 -99 -66 -74 -9 -80 -13 -72 -58 7 -43 5 -43 136 -23 50 8
133 18 182 22 50 3 98 11 109 16 22 12 36 -4 36 -39 0 -30 14 -29 40 4 14 18
19 35 15 50 -5 21 2 27 70 59 84 40 81 34 69 153 -4 34 -12 61 -18 60 -6 0
-64 -27 -130 -60z"/>
<path d="M8668 9923 c7 -3 16 -2 19 1 4 3 -2 6 -13 5 -11 0 -14 -3 -6 -6z"/>
<path d="M5993 9629 l-41 -19 24 -78 c13 -42 29 -94 36 -114 6 -21 15 -38 20
-38 4 0 49 16 99 36 101 41 94 28 68 126 l-10 38 -50 -26 c-28 -14 -52 -24
-53 -22 -1 2 -10 29 -20 61 -9 31 -20 57 -24 56 -4 0 -26 -9 -49 -20z"/>
<path d="M4863 9547 c3 -7 8 -39 12 -70 4 -32 11 -57 16 -57 18 0 28 38 21 86
-6 42 -11 50 -31 52 -17 3 -22 0 -18 -11z"/>
<path d="M9210 9412 c0 -68 5 -72 98 -72 l52 0 0 55 c0 61 4 58 -97 70 l-53 6
0 -59z"/>
<path d="M9800 9350 c0 -56 1 -58 31 -64 17 -3 49 -6 70 -6 l39 0 0 54 0 55
-47 6 c-27 3 -58 7 -70 9 -22 3 -23 0 -23 -54z"/>
<path d="M6290 9378 c-24 -10 -45 -20 -47 -22 -2 -2 30 -112 41 -143 4 -11 17
-8 55 11 l49 25 -20 68 c-12 37 -23 71 -27 74 -3 4 -26 -2 -51 -13z"/>
<path d="M6603 9315 l-58 -54 110 6 c61 3 112 8 115 10 5 5 -91 92 -102 93 -4
0 -33 -25 -65 -55z"/>
<path d="M11393 9041 c-83 -14 -154 -29 -157 -32 -4 -3 37 -30 89 -59 l96 -53
72 69 c40 37 81 76 92 86 19 18 19 18 -10 17 -17 -1 -98 -13 -182 -28z"/>
<path d="M10049 9035 c-1 -14 -2 -31 -3 -37 -1 -8 20 -16 54 -20 94 -13 102
-16 98 -41 -3 -24 -9 -25 -101 -13 l-58 8 3 -43 3 -43 200 -28 c256 -35 242
-35 248 5 2 17 3 33 2 35 -2 2 -36 9 -77 15 -72 12 -73 12 -73 42 0 29 -1 30
-68 39 l-67 9 2 36 c3 39 11 35 -119 55 -41 6 -43 5 -44 -19z"/>
<path d="M4314 8999 c3 -17 6 -40 6 -50 0 -15 8 -19 40 -19 l40 0 0 50 0 50
-46 0 -46 0 6 -31z"/>
<path d="M10355 8992 c-5 -14 -7 -52 -2 -53 1 0 37 -6 80 -13 77 -12 78 -12
83 10 10 41 0 49 -79 60 -63 8 -77 8 -82 -4z"/>
<path d="M11100 8703 l0 -118 90 90 c49 49 86 92 82 95 -7 6 -153 50 -166 50
-3 0 -6 -53 -6 -117z"/>
<path d="M11392 8520 c-33 -55 -55 -100 -49 -100 13 0 206 36 246 45 23 6 20
10 -50 81 -40 41 -76 74 -80 74 -3 0 -33 -45 -67 -100z"/>
<path d="M6490 7771 l0 -50 48 -3 47 -3 3 -57 3 -58 114 0 115 0 0 60 0 60 55
0 55 0 0 45 0 45 -54 0 -55 0 -3 -47 -3 -48 -112 -3 -112 -3 -3 53 -3 53 -47
3 -48 3 0 -50z"/>
<path d="M12634 7533 c-15 -49 -29 -93 -31 -99 -4 -11 124 -61 131 -53 2 2 16
42 31 89 15 47 30 90 32 96 4 10 -102 54 -129 54 -4 0 -19 -39 -34 -87z"/>
<path d="M12882 7312 c-5 -9 -17 -42 -27 -72 -10 -30 -21 -59 -25 -65 -14 -18
-111 -317 -105 -323 6 -6 558 -182 561 -179 1 1 23 61 49 132 70 191 108 317
98 325 -4 4 -93 37 -198 75 -104 37 -225 80 -267 96 -72 26 -78 27 -86 11z"/>
<path d="M13635 7243 c-28 -69 -54 -158 -48 -163 5 -4 27 -14 51 -24 40 -15
43 -15 49 1 3 10 19 51 34 92 16 41 28 75 26 76 -2 2 -99 35 -103 35 -1 0 -5
-8 -9 -17z"/>
<path d="M4876 6184 c-38 -7 -71 -15 -73 -18 -6 -6 18 -159 27 -169 3 -4 41
-2 84 4 72 11 77 13 72 33 -3 11 -11 54 -18 94 -6 39 -14 72 -17 71 -4 0 -37
-7 -75 -15z"/>
<path d="M13124 5149 l-241 -261 126 -279 126 -279 140 137 c77 76 211 207
297 292 147 145 158 154 175 139 18 -16 434 -220 438 -216 2 2 -78 100 -176
219 l-178 216 -230 147 c-127 80 -232 146 -233 146 -2 0 -111 -118 -244 -261z"/>
<path d="M5285 5208 c13 -73 25 -182 29 -243 20 -349 37 -777 31 -783 -15 -15
-25 29 -25 116 0 50 -3 92 -7 92 -5 0 -104 14 -222 30 -117 17 -215 30 -217
30 -2 0 -4 -16 -4 -36 0 -32 -2 -36 -22 -31 -13 3 -40 9 -62 13 l-38 7 7 -41
7 -40 -57 14 c-32 9 -59 13 -61 11 -2 -2 13 -53 35 -112 38 -108 39 -110 95
-148 31 -21 56 -42 56 -46 0 -5 -178 -158 -396 -341 -217 -183 -394 -334 -392
-335 2 -2 73 -24 158 -50 125 -38 158 -45 173 -35 10 6 168 144 350 307 287
255 346 302 142 113 -434 -402 -727 -670 -733 -670 -4 0 -72 34 -152 75 -79
41 -145 73 -146 72 -2 -1 97 -118 220 -260 201 -234 230 -263 311 -317 50 -33
95 -60 102 -60 6 0 23 15 38 33 15 17 55 61 89 97 33 36 201 217 371 403 255
278 310 344 313 370 1 18 -6 117 -16 221 l-19 189 237 396 237 396 -13 220
c-8 121 -17 239 -22 263 l-7 43 -95 40 c-52 22 -110 47 -129 55 -52 25 -173
74 -181 74 -4 0 3 -60 15 -132z m-145 -1251 c0 -2 -15 -16 -32 -33 l-33 -29
29 33 c28 30 36 37 36 29z"/>
<path d="M8928 1916 c-102 -6 -189 -14 -192 -17 -3 -3 94 -96 217 -206 122
-111 253 -229 290 -264 l69 -62 215 6 c118 3 217 8 220 10 2 3 -100 127 -228
276 l-232 271 -86 -2 c-47 -1 -170 -6 -273 -12z"/>
<path d="M9460 690 c0 -5 20 -74 45 -153 25 -80 45 -151 45 -159 0 -7 -25 -48
-55 -90 -30 -42 -55 -80 -55 -84 0 -5 8 -28 17 -51 17 -40 19 -41 71 -45 47
-3 55 0 68 21 20 30 28 21 52 -59 l20 -65 68 -3 c67 -2 70 -1 111 35 l42 38
-39 130 c-22 72 -40 136 -40 143 0 7 32 53 70 101 39 49 70 92 70 95 0 4 -15
4 -33 1 -24 -5 -49 1 -91 20 -32 15 -84 33 -115 41 -31 8 -74 24 -96 34 -61
30 -155 60 -155 50z m328 -622 c-28 -17 -19 -40 -107 283 -28 103 -51 190 -50
195 0 5 38 -99 85 -230 63 -181 81 -242 72 -248z"/>
</g>
</svg>
